<?xml version="1.0" standalone="no"?>
<!DOCTYPE svg PUBLIC "-//W3C//DTD SVG 20010904//EN"
 "http://www.w3.org/TR/2001/REC-SVG-20010904/DTD/svg10.dtd">
<svg version="1.0" xmlns="http://www.w3.org/2000/svg"
 width="1789.000000pt" height="1789.000000pt" viewBox="0 0 1789.000000 1789.000000"
 preserveAspectRatio="xMidYMid meet">
<metadata>
Created by potrace 1.14, written by Peter Selinger 2001-2017
</metadata>
<g transform="translate(0.000000,1789.000000) scale(0.100000,-0.100000)"
fill="#000000" stroke="none">
<path d="M8845 17788 c-71 -54 -137 -104 -145 -111 -14 -11 -245 -185 -1055
-794 -192 -145 -357 -269 -365 -276 -8 -7 -168 -127 -355 -267 -187 -140 -342
-257 -345 -260 -3 -3 -32 -25 -65 -50 -33 -24 -64 -48 -70 -52 -5 -5 -73 -56
-150 -114 -77 -58 -153 -115 -169 -127 -16 -12 -86 -65 -156 -117 -70 -52
-223 -168 -341 -256 -118 -89 -466 -351 -774 -583 -308 -232 -567 -427 -575
-434 -8 -7 -105 -80 -215 -162 -110 -82 -202 -152 -205 -155 -3 -3 -59 -45
-125 -95 -66 -49 -124 -93 -130 -97 -19 -15 -122 -93 -149 -113 -55 -40 -461
-346 -476 -358 -8 -7 -31 -23 -50 -37 -19 -13 -37 -27 -40 -30 -3 -3 -160
-122 -350 -265 -190 -142 -375 -282 -412 -310 -36 -27 -79 -59 -94 -70 -15
-11 -51 -38 -79 -60 -29 -22 -65 -49 -79 -59 l-26 -19 0 -3567 0 -3568 123
-92 c67 -51 284 -215 482 -364 394 -296 368 -276 410 -309 17 -13 203 -154
415 -313 211 -159 391 -294 400 -301 8 -7 105 -80 215 -162 110 -83 205 -154
210 -158 6 -5 276 -208 600 -452 325 -245 604 -455 620 -468 17 -13 35 -27 40
-31 46 -34 132 -98 140 -104 6 -5 91 -70 190 -144 99 -74 187 -140 195 -147 8
-7 49 -37 90 -67 41 -30 77 -57 80 -60 4 -4 481 -363 535 -402 5 -4 24 -18 40
-31 17 -13 251 -190 520 -393 270 -203 497 -374 505 -381 8 -6 98 -74 200
-150 526 -395 1007 -758 1026 -775 15 -13 20 -27 16 -44 -4 -24 -3 -25 17 -13
17 11 25 11 41 1 17 -10 20 -10 21 5 1 10 1 22 0 26 -2 12 3 16 324 257 165
124 302 227 305 230 3 3 50 39 105 80 55 41 105 78 110 83 6 4 28 21 50 37 22
16 45 33 50 38 6 4 285 214 620 467 336 252 615 463 620 467 6 5 44 34 85 64
41 31 86 65 100 75 63 48 407 307 513 386 65 48 124 93 130 98 12 10 293 222
757 571 124 93 227 171 230 174 3 3 95 72 205 154 110 83 205 154 210 158 6 5
33 25 60 45 28 21 55 41 60 46 10 8 55 42 485 365 107 80 200 150 205 154 15
12 560 423 637 480 13 9 32 24 43 33 11 9 72 55 136 103 175 131 592 445 609
459 8 6 53 40 100 75 47 34 87 65 90 68 3 3 53 41 111 84 l106 79 -1 3608 c-1
1984 -4 3610 -8 3614 -8 8 -5697 9 -5705 1 -4 -3 -7 -996 -7 -2205 -1 -1210
-3 -2201 -6 -2203 -3 -2 -113 -85 -245 -183 -132 -99 -242 -182 -245 -185 -5
-5 -828 -626 -859 -648 -20 -14 33 -52 -656 468 -187 141 -477 359 -645 485
-168 126 -307 232 -310 235 -3 3 -175 132 -382 288 -208 156 -378 287 -378
291 0 4 54 48 121 97 67 49 126 94 132 99 7 6 84 64 172 130 88 66 162 122
165 125 3 3 50 39 105 80 55 41 105 78 110 82 6 5 71 54 145 109 178 134 188
141 218 165 15 11 128 97 252 189 124 93 230 174 236 180 6 5 21 17 33 25 26
18 634 475 676 508 l28 22 0 3560 c0 1959 -2 3562 -4 3563 -2 2 -62 -41 -134
-95z"/>
</g>
</svg>
